<?xml version="1.0" encoding="UTF-8"?>
<svg version="1.1" xmlns="http://www.w3.org/2000/svg" width="576" height="576">
<path d="M0 0 C190.08 0 380.16 0 576 0 C576 190.08 576 380.16 576 576 C385.92 576 195.84 576 0 576 C0 385.92 0 195.84 0 0 Z " fill="#004121" transform="translate(0,0)"/>
<path d="M0 0 C119.79 0 239.58 0 363 0 C363 190.08 363 380.16 363 576 C296.67 576 230.34 576 162 576 C164.24291231 558.05670152 164.24291231 558.05670152 165.62890625 551.40234375 C165.94102103 549.86987889 166.25268512 548.33732219 166.56396484 546.8046875 C166.72644714 546.01416992 166.88892944 545.22365234 167.05633545 544.40917969 C171.27938345 523.78738396 174.7141056 503.0537597 178.02954102 482.26928711 C178.2130864 481.12282211 178.39663177 479.97635712 178.58573914 478.79515076 C178.9284796 476.64989596 179.26861135 474.50422196 179.60554504 472.35804749 C180.42100198 467.24059873 181.36948833 462.1989172 182.53234863 457.14968872 C183.32537949 453.50430329 183.87003563 449.82444286 184.42578125 446.13671875 C184.68505574 444.45741844 184.94500331 442.77822194 185.20556641 441.09912109 C185.33690979 440.25073669 185.46825317 439.40235229 185.60357666 438.52825928 C186.22533614 434.5628793 186.88180822 430.6035053 187.54296875 426.64453125 C187.674151 425.8582283 187.80533325 425.07192535 187.94049072 424.26179504 C188.35540966 421.77857041 188.77133865 419.2955167 189.1875 416.8125 C189.80367852 413.13286152 190.41951644 409.45316615 191.03515625 405.7734375 C191.19401306 404.82442062 191.35286987 403.87540375 191.51654053 402.89762878 C192.70991959 395.75933929 193.88640047 388.6183576 195.05859375 381.4765625 C201.24567927 343.85310767 201.24567927 343.85310767 205.05078125 325.6953125 C205.8801934 321.70937202 206.51475466 317.72302551 207.0625 313.6875 C208.30217814 305.18193057 209.91095595 296.45311081 217 291 C217.99 290.34 218.98 289.68 220 289 C218.20942853 286.60334162 216.41766105 284.20759493 214.625 281.8125 C214.08713867 281.09304199 213.54927734 280.37358398 212.99511719 279.63232422 C210.35072866 276.10310057 207.69249757 272.58784232 204.9765625 269.11328125 C204.51556152 268.52248779 204.05456055 267.93169434 203.57958984 267.32299805 C202.70645162 266.20792711 201.82928787 265.09599432 200.94775391 263.98754883 C198 260.21975682 198 260.21975682 198 258 C197.34 258 196.68 258 196 258 C194.12242297 255.55670351 192.36175341 253.10374859 190.625 250.5625 C189.5326899 248.98948762 188.44023817 247.41657359 187.34765625 245.84375 C186.78965332 245.03550781 186.23165039 244.22726563 185.65673828 243.39453125 C183.14764418 239.76806574 180.60673538 236.16436071 178.0625 232.5625 C177.57378418 231.86954834 177.08506836 231.17659668 176.58154297 230.46264648 C168.8776326 219.55650831 161.01770431 208.76159406 153.15625 197.96875 C150.26277316 193.98497754 147.38166376 189.99232203 144.5 186 C133.46656816 170.7197971 122.28249537 155.59689911 110.67578125 140.74609375 C109.55440095 139.31011956 108.43331501 137.87391546 107.3125 136.4375 C106.70873535 135.66374023 106.1049707 134.88998047 105.48291016 134.09277344 C101.5435362 129.02830684 97.68996089 123.90847961 93.875 118.75 C89.61558065 113.00747822 85.13232868 107.53488884 80.43139648 102.1496582 C76.48330158 97.61441403 72.76081614 92.93565038 69.07836914 88.18359375 C65.94435468 84.15616223 62.69908166 80.24652976 59.375 76.375 C55.15257339 71.44735562 51.21769252 66.36818275 47.36328125 61.14453125 C44.24314076 56.99293936 40.98452386 52.96131302 37.72290039 48.9206543 C33.89259502 44.15824566 30.18436604 39.31330031 26.5 34.4375 C21.47605885 27.80502618 16.20196132 21.45481157 10.74609375 15.17578125 C8.19714911 12.24071375 5.70429472 9.2650299 3.25 6.25 C2.29867187 5.08210937 2.29867187 5.08210937 1.328125 3.890625 C0 2 0 2 0 0 Z " fill="#A8EFAC" transform="translate(213,0)"/>
<path d="M0 0 C11.15252967 -0.32539741 22.30391844 -0.57363235 33.46024036 -0.72537041 C38.6417925 -0.79822854 43.82008192 -0.89690074 48.99975586 -1.05615234 C54.00566408 -1.20908557 59.00845075 -1.2921358 64.01651573 -1.3282814 C65.91981852 -1.35401097 67.82296346 -1.40426495 69.72492409 -1.48022079 C84.20116847 -2.03496522 84.20116847 -2.03496522 88.83639145 1.33519745 C92.10483558 4.57537959 94.50959198 8.23741458 96.84445763 12.18059921 C98.78063451 15.22910857 101.17160308 17.86685157 103.5625 20.5625 C108.05805837 25.80715695 112.3041393 31.2054469 116.484375 36.703125 C119.48091334 40.64397028 122.54700844 44.52887281 125.61328125 48.41552734 C128.23322993 51.74063631 130.83661396 55.07751383 133.421875 58.4296875 C139.15007409 65.851113 144.91590618 73.19850099 151.02734375 80.30883789 C154.78274914 84.69313562 158.3383684 89.21561628 161.87792969 93.77490234 C164.96508275 97.73298752 168.16150947 101.57245864 171.4375 105.375 C175.96383882 110.64942752 180.16641424 116.11708178 184.30395508 121.69995117 C188.17402555 126.91867315 192.1271822 132.06605597 196.125 137.1875 C196.72030518 137.95094727 197.31561035 138.71439453 197.92895508 139.50097656 C199.08813852 140.98716669 200.24755463 142.47317538 201.40722656 143.95898438 C212.87483069 158.65382964 223.96868755 173.60861086 234.67358398 188.8684082 C237.87752924 193.42985798 241.13172739 197.94934459 244.4375 202.4375 C253.64078589 214.94107989 262.76650477 227.47709651 271.42333984 240.36816406 C274.6463697 245.1384572 278.05258073 249.68140152 281.68408203 254.15014648 C283 256 283 256 283 258 C283.66 258 284.32 258 285 258 C286.5234375 259.84375 286.5234375 259.84375 288.375 262.5 C292.43067325 268.23003377 296.62347123 273.84118413 300.87451172 279.42773438 C303.46194284 282.8527498 305.88188279 286.25534227 308 290 C307.071875 290.556875 306.14375 291.11375 305.1875 291.6875 C296.42828757 298.04222275 295.53827143 309.8860416 293.87109375 319.8828125 C293.08420806 324.58558986 292.20221964 329.26744897 291.31225586 333.95166016 C289.04137246 345.94057563 286.99347788 357.95264607 285.0625 370 C283.06054275 382.4899412 281.01640729 394.97062909 278.875 407.4375 C278.74944733 408.16874084 278.62389465 408.89998169 278.49453735 409.65338135 C276.820672 419.38583884 275.11025649 429.11134649 273.29248047 438.81811523 C272.46968176 443.24518044 271.73436725 447.67625257 271.0625 452.12890625 C270.03180945 458.92236372 268.8420716 465.68412268 267.62924194 472.4468689 C265.37690536 485.01170624 263.23793834 497.58787055 261.1875 510.1875 C257.46043813 532.18447303 253.19598388 554.08763975 249 576 C185.31 576 121.62 576 56 576 C57.36819331 572.57951672 58.53494989 569.90654798 60.3984375 566.83984375 C60.87152344 566.05665771 61.34460938 565.27347168 61.83203125 564.46655273 C62.34121094 563.63196533 62.85039062 562.79737793 63.375 561.9375 C64.46632518 560.13552527 65.5574659 558.33343882 66.6484375 556.53125 C67.2062793 555.61214844 67.76412109 554.69304688 68.33886719 553.74609375 C69.91600156 551.13886162 71.48047193 548.52460072 73.0390625 545.90625 C77.86207681 537.80778057 82.7479793 529.7624725 87.8125 521.8125 C101.0199144 501.06266421 113.33512404 479.74198576 125.79956055 458.54077148 C126.5905651 457.19604765 127.38237524 455.85179731 128.17504883 454.50805664 C130.61509199 450.36916757 133.03242682 446.21791673 135.4375 442.05859375 C136.62492832 440.01818745 137.81242768 437.97782249 139 435.9375 C139.56460938 434.95394531 140.12921875 433.97039062 140.7109375 432.95703125 C141.23945313 432.05210937 141.76796875 431.1471875 142.3125 430.21484375 C142.78300781 429.40136475 143.25351562 428.58788574 143.73828125 427.74975586 C144.15464844 427.17233643 144.57101562 426.59491699 145 426 C145.66 426 146.32 426 147 426 C147.26554688 425.29488281 147.53109375 424.58976562 147.8046875 423.86328125 C149.06498967 420.84432214 150.53957994 418.04814924 152.125 415.1875 C152.66382813 414.21167969 153.20265625 413.23585938 153.7578125 412.23046875 C154.16773438 411.49441406 154.57765625 410.75835937 155 410 C155.66 410 156.32 410 157 410 C157.07734375 409.319375 157.1546875 408.63875 157.234375 407.9375 C158.22022861 404.15504124 160.13669972 401.23407 162.25 398 C163.16077132 396.57330913 164.0708942 395.14620416 164.98046875 393.71875 C165.46821777 392.95820313 165.9559668 392.19765625 166.45849609 391.4140625 C174.33531865 379.07861406 181.93307455 366.61238822 189.00439453 353.79833984 C194.55392564 343.77434619 200.38654604 333.91590533 206.25683594 324.07763672 C208.92623824 319.58640412 211.5211935 315.07429075 213.99609375 310.47265625 C216.92921344 305.04801861 220.14463607 299.83678345 223.4375 294.625 C227.83559658 287.61254532 231.98917664 280.59099297 235.73046875 273.203125 C237 271 237 271 239 270 C239.68676194 268.34151266 240.35031467 266.67335926 241 265 C241.93542376 263.4314064 242.91544656 261.88857532 243.9375 260.375 C244.44152344 259.61960937 244.94554687 258.86421875 245.46484375 258.0859375 C248.28019943 254.26049238 250.46786129 252.59237306 255 251 C254.48695313 250.63132813 253.97390625 250.26265625 253.4453125 249.8828125 C246.92986572 244.94686797 241.16296818 239.38566107 235.375 233.625 C234.55660645 232.81562988 233.73821289 232.00625977 232.89501953 231.17236328 C232.13302246 230.40649902 231.37102539 229.64063477 230.5859375 228.8515625 C229.8954834 228.15885254 229.2050293 227.46614258 228.49365234 226.75244141 C227 225 227 225 227 223 C226.34 223 225.68 223 225 223 C225 222.34 225 221.68 225 221 C224.34 221 223.68 221 223 221 C221.73046875 219.70703125 221.73046875 219.70703125 220.1875 217.8125 C216.81353631 213.83023259 213.21270738 210.16096601 209.5 206.5 C205.35797923 202.40595179 201.37720092 198.26648108 197.60546875 193.82421875 C195.81689372 191.79194494 193.92881247 189.89942105 192 188 C189.52340379 185.56099918 187.17969143 183.09257578 184.9375 180.4375 C181.33241882 176.25095411 177.46134981 172.34783813 173.5625 168.4375 C172.94173584 167.81222412 172.32097168 167.18694824 171.68139648 166.54272461 C168.64547012 163.51633643 165.57071254 160.59807767 162.30859375 157.81640625 C155.80397317 152.19738017 149.88188542 145.93619029 143.84521484 139.82470703 C138.26422695 134.18080679 132.70064079 128.58456015 126.65429688 123.43164062 C123.48004784 120.68462227 120.61352803 117.63010986 117.6875 114.625 C115.58205846 112.56852222 113.45774938 110.64397254 111.23046875 108.7265625 C106.71487901 104.81185034 102.51219628 100.62348632 98.3125 96.375 C97.57966797 95.63765625 96.84683594 94.9003125 96.09179688 94.140625 C93.54877134 91.58154791 91.00688591 89.02138507 88.47412109 86.45214844 C86.38429148 84.34122522 84.28765593 82.40637994 82 80.5 C79.1485034 78.12375283 76.60769104 75.63957446 74 73 C72.93553473 71.9294576 71.87064973 70.85933244 70.80541992 69.78955078 C70.23099655 69.21189972 69.65657318 68.63424866 69.06474304 68.03909302 C66.45999169 65.4208424 63.85248306 62.80534463 61.24487305 60.18994141 C59.87775676 58.81779597 58.51153929 57.4447544 57.14624023 56.07080078 C55.15590149 54.06821306 53.16224447 52.06897873 51.16796875 50.0703125 C50.56873093 49.46591339 49.9694931 48.86151428 49.35209656 48.23880005 C45.66296079 44.54918705 41.83976737 41.08170312 37.89335632 37.66973877 C35.19597745 35.29093768 32.6641967 32.7713746 30.14453125 30.20703125 C29.63500412 29.6937175 29.12547699 29.18040375 28.60050964 28.65153503 C27.00198927 27.04099329 25.40682224 25.42719697 23.8125 23.8125 C21.69697823 21.67021157 19.57803696 19.5313888 17.45703125 17.39453125 C16.98296341 16.91216507 16.50889557 16.42979889 16.02046204 15.93281555 C13.16613435 13.05773395 10.18691248 10.49676587 7 8 C4.29046625 5.41649107 2.07904656 3.11856984 0 0 Z " fill="#27A963" transform="translate(126,0)"/>
<path d="M0 0 C6.99230913 -0.15251168 13.98418725 -0.25736682 20.9777832 -0.32958984 C23.3552249 -0.35970659 25.732556 -0.40060932 28.10961914 -0.45263672 C31.53299279 -0.52567251 34.9548939 -0.55950887 38.37890625 -0.5859375 C39.43646622 -0.61690521 40.49402618 -0.64787292 41.58363342 -0.67977905 C46.56912776 -0.68203726 50.00554781 -0.56117572 53.91381836 2.72412109 C54.96666789 3.79284154 55.99746879 4.88394144 57 6 C57.8448999 6.8235498 58.6897998 7.64709961 59.56030273 8.49560547 C60.36540283 9.32205566 61.17050293 10.14850586 62 11 C62.96256477 11.96996411 63.92624932 12.93881788 64.89086914 13.90673828 C65.65174583 14.67245651 65.65174583 14.67245651 66.42799377 15.4536438 C68.70542744 17.74454829 70.98560414 20.03271487 73.26586914 22.32080078 C74.46630514 23.52629366 75.66584609 24.73267848 76.86450195 25.93994141 C78.60652063 27.69410539 80.35176362 29.44500522 82.09765625 31.1953125 C82.6300441 31.73286163 83.16243195 32.27041077 83.71095276 32.82424927 C85.84371004 34.95732611 87.9337454 36.95139645 90.36889648 38.73779297 C91.17629272 39.36258545 91.17629272 39.36258545 92 40 C92 40.66 92 41.32 92 42 C92.59645325 42.27080887 93.19290649 42.54161774 93.80743408 42.82063293 C95.9757523 43.98695732 97.36262602 45.12581092 99.08105469 46.86987305 C99.65555359 47.4477507 100.23005249 48.02562836 100.82196045 48.62101746 C101.43243225 49.24494888 102.04290405 49.86888031 102.671875 50.51171875 C103.63374725 51.48139336 103.63374725 51.48139336 104.61505127 52.47065735 C106.66484762 54.53824026 108.70785445 56.61236224 110.75 58.6875 C112.77866262 60.74396246 114.8088256 62.79888319 116.84210205 64.8507843 C118.10502666 66.12576559 119.3652734 67.40340754 120.62225342 68.68424988 C124.36049717 72.4640774 128.22950074 76.02726126 132.25909424 79.49519348 C134.28206355 81.24381048 136.22215166 82.99992062 138 85 C138 85.66 138 86.32 138 87 C138.56299805 87.23630127 139.12599609 87.47260254 139.70605469 87.71606445 C142.5325491 89.29807106 144.43604599 91.22864009 146.703125 93.54296875 C147.60160156 94.45240234 148.50007812 95.36183594 149.42578125 96.29882812 C150.36756931 97.26134531 151.30897355 98.22423819 152.25 99.1875 C157.77886424 104.82134268 163.28233618 110.37731998 169.28417969 115.5090332 C172.47491904 118.28163498 175.36597799 121.34884226 178.3125 124.375 C180.38202856 126.39639998 182.46300348 128.27790844 184.65625 130.15625 C190.8407041 135.51688376 196.48056681 141.43724639 202.22265625 147.26171875 C206.67224022 151.75016371 211.16014278 156.07828037 215.95849609 160.18994141 C220.16804626 163.92225484 224.09481952 167.95187974 228.0625 171.9375 C228.92166016 172.79279297 229.78082031 173.64808594 230.66601562 174.52929688 C235.12652621 178.9966226 239.42714414 183.53400454 243.54077148 188.32250977 C245.27196901 190.31264833 247.10280734 192.16822778 249 194 C251.51761696 196.47925327 253.90090722 198.99440184 256.1875 201.6875 C260.0971537 206.26398716 264.40546344 210.43109415 268.7331543 214.6081543 C270.191698 216.03597834 271.60052116 217.5142375 273 219 C273 219.66 273 220.32 273 221 C273.66 221 274.32 221 275 221 C275 221.66 275 222.32 275 223 C275.66 223 276.32 223 277 223 C278.234375 224.2578125 278.234375 224.2578125 279.75 226.125 C287.5289197 235.25748434 296.05366288 244.23649076 306 251 C304 253 304 253 301.75 253.625 C294.75633959 257.1218302 290.96899119 266.28015814 287.3125 272.875 C280.61246527 284.77752598 273.59104721 296.45875465 266.1875 307.9375 C263.51804571 312.1018487 261.12780084 316.35766294 258.796875 320.71875 C256.43954322 325.02344281 253.96967302 329.25903497 251.5 333.5 C248.0861353 339.36946156 244.72977561 345.25721897 241.5 351.23046875 C235.41391065 362.46754517 228.95326338 373.37262139 222.08203125 384.1484375 C218.94552153 389.07052953 215.8659029 394.02598954 212.8125 399 C212.34279785 399.75974121 211.8730957 400.51948242 211.38916016 401.30224609 C210.74213135 402.35919678 210.74213135 402.35919678 210.08203125 403.4375 C209.70280518 404.05496094 209.3235791 404.67242187 208.93286133 405.30859375 C207.84726892 407.15609479 207.84726892 407.15609479 207 410 C206.34 410 205.68 410 205 410 C204.73445312 410.70511719 204.46890625 411.41023438 204.1953125 412.13671875 C202.93501033 415.15567786 201.46042006 417.95185076 199.875 420.8125 C199.33617187 421.78832031 198.79734375 422.76414062 198.2421875 423.76953125 C197.83226562 424.50558594 197.42234375 425.24164063 197 426 C196.34 426 195.68 426 195 426 C194.73300293 426.71212646 194.46600586 427.42425293 194.19091797 428.15795898 C192.9652069 431.08303125 191.5335641 433.72830303 189.9453125 436.47265625 C189.33671387 437.52678711 188.72811523 438.58091797 188.10107422 439.66699219 C187.44896973 440.78750977 186.79686523 441.90802734 186.125 443.0625 C185.44407512 444.23724786 184.76324941 445.4120532 184.08251953 446.58691406 C179.11788552 455.14081156 174.0581378 463.63552061 168.9453125 472.1015625 C166.38325052 476.34887673 163.86375894 480.62008126 161.35229492 484.89746094 C150.51617962 503.34345822 139.33246015 521.58322642 127.69165039 539.53320312 C125.06225161 543.61742663 122.57484757 547.71703953 120.2890625 552.00390625 C119.79355392 552.85509537 119.29804535 553.70628448 118.78752136 554.58326721 C117.38618402 557.26183394 116.40759639 559.63624601 115.4254303 562.46125793 C113.24892749 567.90003541 110.80755743 572.48573642 106 576 C96.41480119 579.14581353 85.57148968 578.15212607 75.60494828 577.82509089 C71.57097059 577.71190953 67.53670889 577.70194494 63.50138855 577.68063354 C55.87444728 577.62486852 48.25219698 577.47744379 40.62731427 577.29634273 C31.94107056 577.09455009 23.25459237 576.99603755 14.56658518 576.9058249 C-3.29159486 576.71809762 -21.14541934 576.40188225 -39 576 C-38.59569763 575.53053452 -38.19139526 575.06106903 -37.77484131 574.57737732 C-37.24038391 573.95557083 -36.70592651 573.33376434 -36.15527344 572.69311523 C-35.36319489 571.77235451 -35.36319489 571.77235451 -34.55511475 570.83299255 C-31.59869046 567.34829555 -28.7887512 563.74326895 -25.953125 560.16015625 C-25.30859375 559.44730469 -24.6640625 558.73445312 -24 558 C-23.34 558 -22.68 558 -22 558 C-21.62681641 557.1646875 -21.62681641 557.1646875 -21.24609375 556.3125 C-16.7160738 547.90569182 -9.03595202 540.75925352 -2.5625 533.77734375 C0.09122873 530.90112252 2.67355085 527.97424708 5.234375 525.015625 C8.16747614 521.6672175 11.17784379 518.38832697 14.1796875 515.1015625 C16.03676667 513.13276579 16.03676667 513.13276579 17 511 C17.66 511 18.32 511 19 511 C19.4021875 510.13375 19.4021875 510.13375 19.8125 509.25 C21.02929189 506.94449957 22.30333879 504.97943808 24 503 C24.66 503 25.32 503 26 503 C26.66 501.68 27.32 500.36 28 499 C28.66 499 29.32 499 30 499 C30.26482178 498.41299316 30.52964355 497.82598633 30.80249023 497.22119141 C32.04012575 494.92557308 33.36105977 493.34043619 35.16015625 491.4609375 C36.09698242 490.47383789 36.09698242 490.47383789 37.05273438 489.46679688 C38.04756836 488.43135742 38.04756836 488.43135742 39.0625 487.375 C40.42910504 485.93557871 41.79499278 484.49547607 43.16015625 483.0546875 C43.82160645 482.35827148 44.48305664 481.66185547 45.16455078 480.94433594 C50.66235592 475.12037743 55.9340564 469.09179704 61.1953125 463.0546875 C65.52038679 458.13046871 69.93571436 453.28595389 74.328125 448.421875 C82.62686101 439.27321604 82.62686101 439.27321604 90.5625 429.8125 C92.69031616 427.35732751 94.86331355 425.43122827 97.39453125 423.4140625 C99.97615192 421.14022629 102.1261885 418.51140651 104.35546875 415.8984375 C106.45323238 413.47679113 108.73464072 411.26535928 111 409 C112.50639094 407.33910743 114.00573056 405.6718064 115.5 404 C118.57654734 400.55912468 121.73631834 397.26368166 125 394 C127.14296231 391.6476422 129.26297779 389.27555937 131.3828125 386.90234375 C133.30090001 384.77527058 135.23045298 382.66454874 137.1796875 380.56640625 C137.71972412 379.98503906 138.25976074 379.40367187 138.81616211 378.8046875 C139.88036512 377.66116202 140.94623097 376.51918131 142.01391602 375.37890625 C144.22768136 372.99849772 146.19217655 370.71173517 148 368 C148.66 368 149.32 368 150 368 C150.28875 367.401875 150.5775 366.80375 150.875 366.1875 C152 364 152 364 154 361 C154.66 361 155.32 361 156 361 C156.33 360.01 156.66 359.02 157 358 C158.6305259 356.2979598 160.30373713 354.63653531 162 353 C163.80333237 351.07165787 165.59589074 349.13778638 167.375 347.1875 C167.85759277 346.65979004 168.34018555 346.13208008 168.83740234 345.58837891 C172.02590481 342.09265372 175.16454613 338.55799922 178.265625 334.984375 C182.55679952 330.0746528 186.95802108 325.26125182 191.328125 320.421875 C194.70385022 316.67872391 198.07137435 312.93203528 201.375 309.125 C204.32144154 305.7420486 207.33923756 302.42765981 210.375 299.125 C210.84703857 298.61098633 211.31907715 298.09697266 211.80541992 297.56738281 C214.01203996 295.16455996 216.21877781 292.76184573 218.42578125 290.359375 C222.85333018 285.49595337 227.05342829 280.52708522 231.078125 275.32421875 C233.23831807 272.71179014 235.60304012 270.39695988 238 268 C240.12451143 265.63901103 242.18933075 263.22924078 244.25 260.8125 C244.79140625 260.18408203 245.3328125 259.55566406 245.890625 258.90820312 C248.73929353 255.65799044 248.73929353 255.65799044 251 252 C251.66 252 252.32 252 253 252 C253.23976563 251.45472656 253.47953125 250.90945312 253.7265625 250.34765625 C255.31416067 247.42082649 257.26560324 245.01292628 259.375 242.4375 C260.14585937 241.48746094 260.91671875 240.53742188 261.7109375 239.55859375 C265.13619052 235.73002595 268.17429978 233.74261397 273 232 C267.01849401 226.4181799 260.85321815 221.24218511 254.39282227 216.23364258 C249.7209877 212.59957265 245.18484973 208.83072964 240.68652344 204.98486328 C237.31221277 202.10156731 233.89501078 199.28384105 230.4375 196.5 C225.95584118 192.8574326 221.71027619 189.02120746 217.48461914 185.09033203 C213.35706268 181.27215854 209.04773146 177.72187468 204.66796875 174.1953125 C201.08340246 171.24578651 197.65874519 168.13631914 194.23046875 165.0078125 C192.35797354 163.32223888 190.45821166 161.70863848 188.5 160.125 C186 158 186 158 184 155 C183.278125 154.566875 182.55625 154.13375 181.8125 153.6875 C178.21991068 151.53194641 174.91815474 149.01907075 172 146 C172 145.34 172 144.68 172 144 C171.34 144 170.68 144 170 144 C167.875 142.125 167.875 142.125 166 140 C166 139.34 166 138.68 166 138 C165.27683594 137.76152344 164.55367187 137.52304688 163.80859375 137.27734375 C160.56805014 135.80354993 158.62415166 134.02942186 156.0625 131.5625 C151.24099257 127.053739 146.22983579 122.95356809 141.0090332 118.91870117 C137.02462255 115.83104618 133.18550861 112.63378826 129.453125 109.2421875 C128.00169911 107.90033067 128.00169911 107.90033067 126 107 C126 106.34 126 105.68 126 105 C125.27039063 104.75378906 124.54078125 104.50757812 123.7890625 104.25390625 C120.6984326 102.86442138 118.8285513 101.26386052 116.375 98.9375 C112.02048583 94.90458953 107.53429269 91.11965002 102.921875 87.38671875 C99.72589414 84.77609802 96.5791899 82.11290278 93.4375 79.4375 C88.78021064 75.47469467 84.05052922 71.62294759 79.2578125 67.82421875 C76.46941059 65.57130579 73.79204032 63.20887272 71.109375 60.83203125 C67.80538277 57.96245282 64.39612519 55.22419546 61 52.46484375 C57.73792748 49.7846774 54.52392428 47.05285958 51.3125 44.3125 C47.21460808 40.81794552 43.07596668 37.43704537 38.68359375 34.31640625 C36.61648643 32.70012976 34.85512952 30.85512952 33 29 C31.37050396 27.62621786 29.72312243 26.27348947 28.0625 24.9375 C23.22298824 21.01549247 18.46281125 17.01202921 13.72607422 12.96679688 C9.7663494 9.60240278 5.70108532 6.41605726 1.51171875 3.33984375 C1.01285156 2.89769531 0.51398438 2.45554688 0 2 C0 1.34 0 0.68 0 0 Z " fill="#077842" transform="translate(76,0)"/>
<path d="M0 0 C5.49454688 -0.34904277 10.98252237 -0.60133938 16.4855957 -0.76904297 C18.35164826 -0.83898569 20.21694612 -0.93419547 22.08032227 -1.05615234 C37.10949124 -2.01434742 37.10949124 -2.01434742 41.88491821 1.31356812 C45.17209175 4.53635453 47.54585692 8.21463658 49.85383606 12.17266846 C51.77418624 15.23428673 54.16804816 17.86740147 56.5625 20.5625 C61.05848118 25.80676908 65.30416237 31.20547725 69.484375 36.703125 C72.48091334 40.64397028 75.54700844 44.52887281 78.61328125 48.41552734 C81.23322993 51.74063631 83.83661396 55.07751383 86.421875 58.4296875 C92.15007409 65.851113 97.91590618 73.19850099 104.02734375 80.30883789 C107.78274914 84.69313562 111.3383684 89.21561628 114.87792969 93.77490234 C117.96508275 97.73298752 121.16150947 101.57245864 124.4375 105.375 C128.96383882 110.64942752 133.16641424 116.11708178 137.30395508 121.69995117 C141.17402555 126.91867315 145.1271822 132.06605597 149.125 137.1875 C149.72030518 137.95094727 150.31561035 138.71439453 150.92895508 139.50097656 C152.08813852 140.98716669 153.24755463 142.47317538 154.40722656 143.95898438 C165.87483069 158.65382964 176.96868755 173.60861086 187.67358398 188.8684082 C190.87752924 193.42985798 194.13172739 197.94934459 197.4375 202.4375 C206.64078589 214.94107989 215.76650477 227.47709651 224.42333984 240.36816406 C227.6463697 245.1384572 231.05258073 249.68140152 234.68408203 254.15014648 C236 256 236 256 236 258 C236.66 258 237.32 258 238 258 C239.5234375 259.84375 239.5234375 259.84375 241.375 262.5 C245.43067325 268.23003377 249.62347123 273.84118413 253.87451172 279.42773438 C256.46194284 282.8527498 258.88188279 286.25534227 261 290 C260.071875 290.556875 259.14375 291.11375 258.1875 291.6875 C249.42828757 298.04222275 248.53827143 309.8860416 246.87109375 319.8828125 C246.08420806 324.58558986 245.20221964 329.26744897 244.31225586 333.95166016 C242.04137246 345.94057563 239.99347788 357.95264607 238.0625 370 C236.06054275 382.4899412 234.01640729 394.97062909 231.875 407.4375 C231.74944733 408.16874084 231.62389465 408.89998169 231.49453735 409.65338135 C229.820672 419.38583884 228.11025649 429.11134649 226.29248047 438.81811523 C225.46968176 443.24518044 224.73436725 447.67625257 224.0625 452.12890625 C223.03180945 458.92236372 221.8420716 465.68412268 220.62924194 472.4468689 C218.89077835 482.14502523 217.16983878 491.84492182 215.58984375 501.5703125 C215.47499634 502.27635117 215.36014893 502.98238983 215.24182129 503.70982361 C215.12640991 504.41941727 215.01099854 505.12901093 214.89208984 505.86010742 C211.07275834 529.33569452 206.53263414 552.65006654 202 576 C172.63 576 143.26 576 113 576 C116.35384615 565.93846154 116.35384615 565.93846154 117.875 562.25 C122.25517908 551.47576639 126.3144679 540.57488654 130.33984375 529.6640625 C130.76330078 528.51679687 131.18675781 527.36953125 131.62304688 526.1875 C132.49634379 523.82064478 133.36874597 521.45345922 134.24023438 519.0859375 C137.17356246 511.14503113 140.24662173 503.2776789 143.45703125 495.4453125 C146.2566617 488.58742811 148.84195148 481.69260483 151.25 474.6875 C154.82894001 464.27920148 158.78248023 454.02483287 162.765625 443.765625 C165.78124053 435.99782823 168.66336566 428.18824571 171.51391602 420.35839844 C177.90354527 402.83190326 184.53150443 385.40169681 191.23321533 367.99249268 C192.44719482 364.83796269 193.65902347 361.6826078 194.87109375 358.52734375 C196.50643892 354.27160539 198.14291123 350.01630554 199.78125 345.76171875 C200.14259033 344.82247559 200.50393066 343.88323242 200.8762207 342.91552734 C201.66140047 340.87846092 202.44921106 338.84240744 203.23901367 336.80712891 C206.03892225 329.57452408 208.71299412 322.30673512 211.3125 315 C214.27092227 306.75543118 217.24457093 298.51703558 220.3125 290.3125 C220.62550049 289.45849609 220.93850098 288.60449219 221.26098633 287.72460938 C225.39160327 276.78018317 225.39160327 276.78018317 230.140625 273.5390625 C230.83671875 273.23742187 231.5328125 272.93578125 232.25 272.625 C232.95640625 272.30789063 233.6628125 271.99078125 234.390625 271.6640625 C234.92171875 271.44492187 235.4528125 271.22578125 236 271 C235.50371094 270.5153125 235.00742187 270.030625 234.49609375 269.53125 C229.76429917 264.86230658 225.31686403 260.0516494 221 255 C219.70642578 253.50533203 219.70642578 253.50533203 218.38671875 251.98046875 C208.46779258 240.50211079 198.73827082 228.86118061 189.4375 216.875 C181.9840587 207.28984146 173.95626204 198.19418948 165.75 189.25 C161.77972533 184.91530399 158.03415444 180.44262232 154.3359375 175.875 C147.08363849 166.94909353 139.55104163 158.33880127 131.7109375 149.92578125 C129.00338239 147.00365045 126.37258447 144.03035331 123.76953125 141.015625 C121.57383179 138.51456336 119.3163292 136.07377345 117.0625 133.625 C113.98476371 130.25656298 111.04624213 126.85457765 108.25 123.25 C104.19958956 118.08223496 99.72259151 113.37445612 95.21508789 108.60961914 C90.95565932 104.08458448 86.98171105 99.44038155 83.109375 94.578125 C80.10838832 90.91025239 76.89001649 87.45514583 73.65234375 83.99609375 C72 82 72 82 72 80 C71.39800781 79.73227783 70.79601562 79.46455566 70.17578125 79.1887207 C67.9572546 77.97664639 66.7950319 76.90388993 65.1875 74.98046875 C64.67541992 74.37678467 64.16333984 73.77310059 63.63574219 73.15112305 C62.8260498 72.17912964 62.8260498 72.17912964 62 71.1875 C60.84030322 69.82141929 59.67880719 68.4568642 58.515625 67.09375 C57.92974609 66.40667969 57.34386719 65.71960938 56.74023438 65.01171875 C54.14244846 62.00866657 51.45645111 59.09249724 48.75 56.1875 C48.25830322 55.65866211 47.76660645 55.12982422 47.26000977 54.58496094 C46.30064648 53.55320802 45.34109784 52.52162741 44.38134766 51.49023438 C42.21639429 49.15462545 40.07438955 46.79878021 37.9375 44.4375 C37.24527344 43.67308594 36.55304688 42.90867188 35.83984375 42.12109375 C31 36.54140127 31 36.54140127 31 34 C30.44699219 33.7834375 29.89398438 33.566875 29.32421875 33.34375 C26.24913627 31.56588719 24.13613352 29.13314989 21.8125 26.5 C21.33707764 25.96971191 20.86165527 25.43942383 20.37182617 24.89306641 C19.39285987 23.80075985 18.41605789 22.70650977 17.44140625 21.61035156 C16.06936951 20.07750022 14.67999547 18.5631586 13.28125 17.0546875 C12.4665625 16.17039062 11.651875 15.28609375 10.8125 14.375 C10.07644531 13.57835937 9.34039062 12.78171875 8.58203125 11.9609375 C7 10 7 10 7 8 C6.34 8 5.68 8 5 8 C0 2.52380952 0 2.52380952 0 0 Z " fill="#54CA7C" transform="translate(173,0)"/>
<path d="M0 0 C1.05960937 0.80824219 1.05960937 0.80824219 2.140625 1.6328125 C2.67171875 2.04273438 3.2028125 2.45265625 3.75 2.875 C2.75 5.875 2.75 5.875 0.25 7.8125 C-4.14440816 11.24696463 -7.10073256 15.91965526 -10.296875 20.42578125 C-10.94140625 21.23402344 -11.5859375 22.04226563 -12.25 22.875 C-12.91 22.875 -13.57 22.875 -14.25 22.875 C-14.3325 23.596875 -14.415 24.31875 -14.5 25.0625 C-15.40713831 28.46426868 -16.85010879 30.32966084 -19.25 32.875 C-19.91 32.875 -20.57 32.875 -21.25 32.875 C-21.37493332 33.46871902 -21.49986664 34.06243805 -21.62858582 34.67414856 C-22.6093539 38.14771725 -24.735531 40.92701937 -26.73828125 43.88671875 C-27.42022804 44.90857018 -27.42022804 44.90857018 -28.11595154 45.95106506 C-29.59210765 48.15898497 -31.07686286 50.36095066 -32.5625 52.5625 C-33.57800861 54.07505492 -34.59330786 55.58775044 -35.60839844 57.10058594 C-45.41374008 71.68928104 -55.41683025 86.02874606 -66.25 99.875 C-71.77617867 106.95990019 -77.17687252 114.10223018 -82.36376953 121.43994141 C-85.53842771 125.91740163 -88.81344332 130.31059756 -92.125 134.6875 C-96.22832106 140.1183661 -100.22067809 145.61193155 -104.125 151.1875 C-113.45180225 164.48920912 -123.12099028 177.51265021 -133.13134766 190.30737305 C-141.19990057 200.6262692 -149.03220477 211.10246449 -156.6003418 221.79345703 C-160.21662799 226.87992583 -164.00793872 231.81893331 -167.83203125 236.75 C-174.66947039 245.58675495 -181.26630709 254.60377038 -187.88574219 263.60400391 C-191.6476406 268.71433615 -195.43463039 273.80449034 -199.25 278.875 C-209.42792054 292.41044491 -219.42769983 306.0741456 -229.32421875 319.81640625 C-232.45237599 324.1601108 -235.60326911 328.48686073 -238.76171875 332.80859375 C-239.96001489 334.47236976 -241.11265298 336.16897948 -242.25 337.875 C-244.85287362 338.1614952 -247.21705374 338.25348245 -249.82080078 338.21557617 C-250.60137848 338.21601425 -251.38195618 338.21645233 -252.18618774 338.21690369 C-254.77281489 338.21480941 -257.35879824 338.19144883 -259.9453125 338.16796875 C-261.73607021 338.16237506 -263.5268325 338.15810389 -265.31759644 338.15510559 C-270.03595608 338.14363895 -274.75403964 338.11415625 -279.47229004 338.08099365 C-284.28487411 338.05033187 -289.0975027 338.0366086 -293.91015625 338.02148438 C-303.35689228 337.98928819 -312.8034232 337.93806998 -322.25 337.875 C-321.84569763 337.40553452 -321.44139526 336.93606903 -321.02484131 336.45237732 C-320.49038391 335.83057083 -319.95592651 335.20876434 -319.40527344 334.56811523 C-318.87722107 333.95427475 -318.3491687 333.34043427 -317.80511475 332.70799255 C-314.84869046 329.22329555 -312.0387512 325.61826895 -309.203125 322.03515625 C-308.55859375 321.32230469 -307.9140625 320.60945313 -307.25 319.875 C-306.59 319.875 -305.93 319.875 -305.25 319.875 C-304.87681641 319.0396875 -304.87681641 319.0396875 -304.49609375 318.1875 C-299.9660738 309.78069182 -292.28595202 302.63425352 -285.8125 295.65234375 C-283.15877127 292.77612252 -280.57644915 289.84924708 -278.015625 286.890625 C-275.08252386 283.5422175 -272.07215621 280.26332697 -269.0703125 276.9765625 C-267.21323333 275.00776579 -267.21323333 275.00776579 -266.25 272.875 C-265.59 272.875 -264.93 272.875 -264.25 272.875 C-263.8478125 272.00875 -263.8478125 272.00875 -263.4375 271.125 C-262.22070811 268.81949957 -260.94666121 266.85443808 -259.25 264.875 C-258.59 264.875 -257.93 264.875 -257.25 264.875 C-256.59 263.555 -255.93 262.235 -255.25 260.875 C-254.59 260.875 -253.93 260.875 -253.25 260.875 C-252.98517822 260.28799316 -252.72035645 259.70098633 -252.44750977 259.09619141 C-251.20987425 256.80057308 -249.88894023 255.21543619 -248.08984375 253.3359375 C-247.15301758 252.34883789 -247.15301758 252.34883789 -246.19726562 251.34179688 C-245.53404297 250.65150391 -244.87082031 249.96121094 -244.1875 249.25 C-242.82089496 247.81057871 -241.45500722 246.37047607 -240.08984375 244.9296875 C-239.42839355 244.23327148 -238.76694336 243.53685547 -238.08544922 242.81933594 C-232.58764408 236.99537743 -227.3159436 230.96679704 -222.0546875 224.9296875 C-217.72961321 220.00546871 -213.31428564 215.16095389 -208.921875 210.296875 C-200.62313899 201.14821604 -200.62313899 201.14821604 -192.6875 191.6875 C-190.55968384 189.23232751 -188.38668645 187.30622827 -185.85546875 185.2890625 C-183.27384808 183.01522629 -181.1238115 180.38640651 -178.89453125 177.7734375 C-176.79676762 175.35179113 -174.51535928 173.14035928 -172.25 170.875 C-170.74360906 169.21410743 -169.24426944 167.5468064 -167.75 165.875 C-164.67345266 162.43412468 -161.51368166 159.13868166 -158.25 155.875 C-156.10703769 153.5226422 -153.98702221 151.15055937 -151.8671875 148.77734375 C-149.94909999 146.65027058 -148.01954702 144.53954874 -146.0703125 142.44140625 C-145.53027588 141.86003906 -144.99023926 141.27867187 -144.43383789 140.6796875 C-143.36963488 139.53616202 -142.30376903 138.39418131 -141.23608398 137.25390625 C-139.02231864 134.87349772 -137.05782345 132.58673517 -135.25 129.875 C-134.59 129.875 -133.93 129.875 -133.25 129.875 C-132.96125 129.276875 -132.6725 128.67875 -132.375 128.0625 C-131.25 125.875 -131.25 125.875 -129.25 122.875 C-128.59 122.875 -127.93 122.875 -127.25 122.875 C-126.92 121.885 -126.59 120.895 -126.25 119.875 C-124.6194741 118.1729598 -122.94626287 116.51153531 -121.25 114.875 C-119.44666763 112.94665787 -117.65410926 111.01278638 -115.875 109.0625 C-115.39240723 108.53479004 -114.90981445 108.00708008 -114.41259766 107.46337891 C-111.22409519 103.96765372 -108.08545387 100.43299922 -104.984375 96.859375 C-100.69320048 91.9496528 -96.29197892 87.13625182 -91.921875 82.296875 C-88.54614978 78.55372391 -85.17862565 74.80703528 -81.875 71 C-78.92855846 67.6170486 -75.91076244 64.30265981 -72.875 61 C-72.40296143 60.48598633 -71.93092285 59.97197266 -71.44458008 59.44238281 C-69.23796004 57.03955996 -67.03122219 54.63684573 -64.82421875 52.234375 C-60.39666982 47.37095337 -56.19657171 42.40208522 -52.171875 37.19921875 C-50.01168193 34.58679014 -47.64695988 32.27195988 -45.25 29.875 C-43.12548857 27.51401103 -41.06066925 25.10424078 -39 22.6875 C-38.45859375 22.05908203 -37.9171875 21.43066406 -37.359375 20.78320312 C-34.51070647 17.53299044 -34.51070647 17.53299044 -32.25 13.875 C-31.59 13.875 -30.93 13.875 -30.25 13.875 C-30.01023437 13.32972656 -29.77046875 12.78445312 -29.5234375 12.22265625 C-27.93583933 9.29582649 -25.98439676 6.88792628 -23.875 4.3125 C-23.10414063 3.36246094 -22.33328125 2.41242188 -21.5390625 1.43359375 C-18.37986248 -2.09759399 -16.39364617 -3.85951071 -11.75 -4.9375 C-6.6019484 -5.21328848 -3.98846531 -3.05782341 0 0 Z " fill="#006436" transform="translate(359.25,238.125)"/>
<path d="M0 0 C0.75925781 0.6290625 1.51851562 1.258125 2.30078125 1.90625 C5.29394372 4.40865465 5.29394372 4.40865465 8.61328125 6.40625 C8.61328125 7.06625 8.61328125 7.72625 8.61328125 8.40625 C7.49953125 8.7775 7.49953125 8.7775 6.36328125 9.15625 C-0.35116295 12.20827009 -2.37106907 18.07898502 -5.38671875 24.40625 C-6.64649625 26.97428501 -7.92161434 29.53454482 -9.19921875 32.09375 C-9.7111377 33.12205933 -9.7111377 33.12205933 -10.23339844 34.17114258 C-12.53659602 38.77485462 -14.93384482 43.31838147 -17.38671875 47.84375 C-20.241019 53.11789433 -22.86894332 58.46377352 -25.38671875 63.90625 C-28.20037515 69.98830903 -31.19804786 75.92376985 -34.38671875 81.81689453 C-40.09529979 92.38390171 -45.31573829 103.18173305 -50.39331055 114.06347656 C-52.5902832 118.75732439 -54.86266567 123.40545447 -57.19921875 128.03125 C-61.00613682 135.56877608 -64.65002461 143.1806618 -68.2668457 150.81103516 C-70.7107035 155.95355625 -73.21282031 161.05903926 -75.78125 166.140625 C-79.23479369 172.99783959 -82.43113489 179.95914847 -85.57998657 186.96054077 C-87.21312687 190.5900802 -88.85714945 194.21469178 -90.5 197.83984375 C-90.99626137 198.93559471 -90.99626137 198.93559471 -91.50254822 200.05348206 C-96.4153787 210.89363139 -101.42958947 221.68616666 -106.47772217 232.46392822 C-107.43081939 234.50048318 -108.38177775 236.53802805 -109.33251953 238.57568359 C-119.55367542 260.46588246 -130.15849971 282.14381184 -141.03466797 303.71630859 C-141.7578698 305.15262886 -141.7578698 305.15262886 -142.49568176 306.6179657 C-143.40394206 308.42072612 -144.31407437 310.222545 -145.22636414 312.02326965 C-145.62934219 312.82278549 -146.03232025 313.62230133 -146.44750977 314.44604492 C-146.79959 315.14195236 -147.15167023 315.8378598 -147.51441956 316.55485535 C-148.50349058 318.5594309 -148.50349058 318.5594309 -149.38671875 321.40625 C-167.86671875 321.40625 -186.34671875 321.40625 -205.38671875 321.40625 C-204.01852544 317.98576672 -202.85176886 315.31279798 -200.98828125 312.24609375 C-200.51519531 311.46290771 -200.04210937 310.67972168 -199.5546875 309.87280273 C-198.79091797 308.62092163 -198.79091797 308.62092163 -198.01171875 307.34375 C-196.92039357 305.54177527 -195.82925285 303.73968882 -194.73828125 301.9375 C-194.18043945 301.01839844 -193.62259766 300.09929687 -193.04785156 299.15234375 C-191.47071719 296.54511162 -189.90624682 293.93085072 -188.34765625 291.3125 C-183.52464194 283.21403057 -178.63873945 275.1687225 -173.57421875 267.21875 C-160.36680435 246.46891421 -148.05159471 225.14823576 -135.5871582 203.94702148 C-134.79615365 202.60229765 -134.00434351 201.25804731 -133.21166992 199.91430664 C-130.77162676 195.77541757 -128.35429193 191.62416673 -125.94921875 187.46484375 C-124.76179043 185.42443745 -123.57429107 183.38407249 -122.38671875 181.34375 C-121.53980469 179.86841797 -121.53980469 179.86841797 -120.67578125 178.36328125 C-120.14726562 177.45835937 -119.61875 176.5534375 -119.07421875 175.62109375 C-118.36845703 174.40087524 -118.36845703 174.40087524 -117.6484375 173.15600586 C-117.02388672 172.28987671 -117.02388672 172.28987671 -116.38671875 171.40625 C-115.72671875 171.40625 -115.06671875 171.40625 -114.38671875 171.40625 C-114.12117188 170.70113281 -113.855625 169.99601563 -113.58203125 169.26953125 C-112.32172908 166.25057214 -110.84713881 163.45439924 -109.26171875 160.59375 C-108.45347656 159.13001953 -108.45347656 159.13001953 -107.62890625 157.63671875 C-107.21898437 156.90066406 -106.8090625 156.16460937 -106.38671875 155.40625 C-105.72671875 155.40625 -105.06671875 155.40625 -104.38671875 155.40625 C-104.27070313 154.3853125 -104.27070313 154.3853125 -104.15234375 153.34375 C-103.16649014 149.56129124 -101.25001903 146.64032 -99.13671875 143.40625 C-98.22594743 141.97955913 -97.31582455 140.55245416 -96.40625 139.125 C-95.91850098 138.36445313 -95.43075195 137.60390625 -94.92822266 136.8203125 C-87.0514001 124.48486406 -79.4536442 112.01863822 -72.38232422 99.20458984 C-66.83279311 89.18059619 -61.00017271 79.32215533 -55.12988281 69.48388672 C-52.46048051 64.99265412 -49.86552525 60.48054075 -47.390625 55.87890625 C-44.45750531 50.45426861 -41.24208268 45.24303345 -37.94921875 40.03125 C-33.55112217 33.01879532 -29.39754211 25.99724297 -25.65625 18.609375 C-24.38671875 16.40625 -24.38671875 16.40625 -22.38671875 15.40625 C-21.69995681 13.74776266 -21.03640408 12.07960926 -20.38671875 10.40625 C-19.45129499 8.8376564 -18.47127219 7.29482532 -17.44921875 5.78125 C-16.94519531 5.02585937 -16.44117188 4.27046875 -15.921875 3.4921875 C-14.04726378 0.94500585 -12.4843264 -1.15470694 -9.51171875 -2.34375 C-5.77171201 -2.78375079 -3.13273945 -2.09191112 0 0 Z " fill="#1A9958" transform="translate(387.38671875,254.59375)"/>
<path d="M0 0 C3.65242347 3.2783801 3.65242347 3.2783801 4.9453125 4.74609375 C4.9453125 5.40609375 4.9453125 6.06609375 4.9453125 6.74609375 C3.25260417 7.29947917 1.55989583 7.85286458 -0.1328125 8.40625 C-5.79810119 12.35583134 -7.33386266 20.35777057 -9.0078125 26.65625 C-9.39974289 28.0847377 -9.39974289 28.0847377 -9.79959106 29.54208374 C-10.64388082 32.62848297 -11.47439602 35.71840243 -12.3046875 38.80859375 C-12.8867293 40.94626379 -13.46957928 43.08371394 -14.05322266 45.22094727 C-16.54483117 54.36444921 -19.00032273 63.5176306 -21.4375 72.67578125 C-21.61277222 73.33430588 -21.78804443 73.99283051 -21.96862793 74.67131042 C-22.73736039 77.56376962 -23.50095986 80.45740191 -24.25488281 83.35375977 C-26.08405528 90.32707296 -28.06731086 97.2443425 -30.1015625 104.16015625 C-34.97630079 120.75546385 -39.57802625 137.42739733 -44.20910645 154.09191895 C-45.162871 157.5222722 -46.11836988 160.95214129 -47.07387352 164.38201046 C-51.91616233 181.76604115 -56.72668141 199.15804866 -61.46286774 216.57130051 C-64.48070287 227.6660164 -67.54520535 238.74626598 -70.6796875 249.80859375 C-70.90736816 250.61354279 -71.13504883 251.41849182 -71.36962891 252.24783325 C-72.92580066 257.74882761 -74.4876451 263.2481865 -76.0546875 268.74609375 C-76.2441394 269.41088745 -76.43359131 270.07568115 -76.62878418 270.76062012 C-77.76309492 274.73717427 -78.90584292 278.71121598 -80.0546875 282.68359375 C-80.45421631 284.0749353 -80.45421631 284.0749353 -80.86181641 285.49438477 C-81.2357251 286.77720337 -81.2357251 286.77720337 -81.6171875 288.0859375 C-81.82472656 288.80128662 -82.03226562 289.51663574 -82.24609375 290.25366211 C-83.39427095 293.79283512 -84.74824137 297.26223741 -86.0546875 300.74609375 C-100.9046875 300.74609375 -115.7546875 300.74609375 -131.0546875 300.74609375 C-127.70084135 290.68455529 -127.70084135 290.68455529 -126.1796875 286.99609375 C-121.79950842 276.22186014 -117.7402196 265.32098029 -113.71484375 254.41015625 C-113.0796582 252.68925781 -113.0796582 252.68925781 -112.43164062 250.93359375 C-111.55834371 248.56673853 -110.68594153 246.19955297 -109.81445312 243.83203125 C-106.88112504 235.89112488 -103.80806577 228.02377265 -100.59765625 220.19140625 C-97.7980258 213.33352186 -95.21273602 206.43869858 -92.8046875 199.43359375 C-89.22574749 189.02529523 -85.27220727 178.77092662 -81.2890625 168.51171875 C-78.27344697 160.74392198 -75.39132184 152.93433946 -72.54077148 145.10449219 C-66.15114223 127.57799701 -59.52318307 110.14779056 -52.82147217 92.73858643 C-51.60749268 89.58405644 -50.39566403 86.42870155 -49.18359375 83.2734375 C-47.54824858 79.01769914 -45.91177627 74.76239929 -44.2734375 70.5078125 C-43.91209717 69.56856934 -43.55075684 68.62932617 -43.1784668 67.66162109 C-42.39328703 65.62455467 -41.60547644 63.58850119 -40.81567383 61.55322266 C-38.01576525 54.32061783 -35.34169338 47.05282887 -32.7421875 39.74609375 C-29.78376523 31.50152493 -26.81011657 23.26312933 -23.7421875 15.05859375 C-23.42918701 14.20458984 -23.11618652 13.35058594 -22.79370117 12.47070312 C-20.4556562 6.2758511 -18.09547631 0.12725534 -11.8671875 -3.00390625 C-6.71371641 -5.09084909 -4.16831496 -3.23455265 0 0 Z " fill="#49C477" transform="translate(417.0546875,275.25390625)"/>
</svg>
